<svg width="24" height="24" viewBox="0 0 24 24" fill="none" xmlns="http://www.w3.org/2000/svg">
<path fill-rule="evenodd" clip-rule="evenodd" d="M16.0613 13.7865C15.8378 13.6747 14.742 13.1362 14.538 13.0612C14.334 12.987 14.1855 12.9502 14.0363 13.1737C13.8878 13.3957 13.461 13.8982 13.3312 14.0467C13.2007 14.196 13.071 14.214 12.8482 14.103C12.6255 13.9905 11.907 13.7557 11.0557 12.9967C10.3935 12.4057 9.94575 11.676 9.816 11.4525C9.68625 11.2297 9.80175 11.109 9.9135 10.998C10.014 10.8982 10.1362 10.7377 10.248 10.608C10.3597 10.4775 10.3965 10.3845 10.4708 10.2352C10.5458 10.0867 10.5082 9.95697 10.452 9.84522C10.3965 9.73347 9.951 8.63622 9.765 8.18997C9.58425 7.75572 9.4005 7.81497 9.264 7.80747C9.1335 7.80147 8.985 7.79997 8.8365 7.79997C8.688 7.79997 8.4465 7.85547 8.2425 8.07897C8.03775 8.30172 7.4625 8.84097 7.4625 9.93822C7.4625 11.0347 8.2605 12.0945 8.37225 12.2437C8.484 12.3922 9.9435 14.6437 12.1793 15.609C12.7118 15.8385 13.1265 15.9757 13.4497 16.0777C13.9837 16.248 14.4698 16.224 14.8538 16.1662C15.2813 16.1025 16.1723 15.627 16.3583 15.1065C16.5435 14.586 16.5435 14.1397 16.488 14.0467C16.4325 13.9537 16.2848 13.8982 16.0613 13.7865ZM11.9948 19.3387H11.9918C10.6638 19.339 9.36028 18.982 8.21775 18.3052L7.94775 18.1447L5.14125 18.8812L5.8905 16.1452L5.71425 15.8647C4.97185 14.683 4.57897 13.3153 4.581 11.9197C4.5825 7.83222 7.908 4.50672 11.9977 4.50672C13.9777 4.50672 15.8393 5.27922 17.2388 6.68022C17.929 7.36766 18.4762 8.18514 18.8485 9.08539C19.2208 9.98564 19.4109 10.9508 19.4078 11.925C19.4063 16.0125 16.0807 19.3387 11.9948 19.3387ZM18.3038 5.61597C17.4774 4.78416 16.4942 4.12462 15.4111 3.67557C14.328 3.22652 13.1665 2.99688 11.994 2.99997C7.0785 2.99997 3.0765 7.00122 3.075 11.919C3.07425 13.491 3.4845 15.0255 4.26525 16.3777L3 21L7.728 19.7595C9.03591 20.4721 10.5016 20.8454 11.991 20.8455H11.9948C16.9102 20.8455 20.9122 16.8442 20.9137 11.9257C20.9174 10.7537 20.6886 9.59254 20.2406 8.50949C19.7926 7.42644 19.1343 6.44297 18.3038 5.61597Z" fill="black"/>
</svg>
